<svg id="visual" viewBox="0 0 3840 2160" width="3840" height="2160" xmlns="http://www.w3.org/2000/svg" xmlns:xlink="http://www.w3.org/1999/xlink" version="1.1"><g stroke-width="1" stroke-linejoin="bevel"><path d="M1898 1076L1875 943L1763 1075Z" fill="#030412" stroke="#030412"></path><path d="M1875 943L1704 941L1763 1075Z" fill="#030412" stroke="#030412"></path><path d="M1580 1091L1762 1214L1763 1075Z" fill="#030916" stroke="#030916"></path><path d="M1763 1075L1762 1214L1898 1076Z" fill="#030b17" stroke="#030b17"></path><path d="M1704 941L1580 1091L1763 1075Z" fill="#030412" stroke="#030412"></path><path d="M2145 888L1891 759L1875 943Z" fill="#030715" stroke="#030715"></path><path d="M1875 943L1748 729L1704 941Z" fill="#010f1b" stroke="#010f1b"></path><path d="M1762 1214L1924 1277L1898 1076Z" fill="#020c19" stroke="#020c19"></path><path d="M1898 1076L2145 888L1875 943Z" fill="#00101c" stroke="#00101c"></path><path d="M1891 759L1748 729L1875 943Z" fill="#030613" stroke="#030613"></path><path d="M1704 941L1531 858L1580 1091Z" fill="#030916" stroke="#030916"></path><path d="M2107 1230L2142 1107L1898 1076Z" fill="#030412" stroke="#030412"></path><path d="M2142 1107L2145 888L1898 1076Z" fill="#020c19" stroke="#020c19"></path><path d="M1748 729L1531 858L1704 941Z" fill="#010f1b" stroke="#010f1b"></path><path d="M1924 1277L2107 1230L1898 1076Z" fill="#00101c" stroke="#00101c"></path><path d="M1367 1125L1569 1263L1580 1091Z" fill="#010f1b" stroke="#010f1b"></path><path d="M1580 1091L1569 1263L1762 1214Z" fill="#030916" stroke="#030916"></path><path d="M1758 1470L1925 1435L1924 1277Z" fill="#030b17" stroke="#030b17"></path><path d="M2145 888L2074 732L1891 759Z" fill="#03010e" stroke="#03010e"></path><path d="M1891 759L1761 526L1748 729Z" fill="#020c19" stroke="#020c19"></path><path d="M1748 729L1524 752L1531 858Z" fill="#030715" stroke="#030715"></path><path d="M1758 1470L1924 1277L1762 1214Z" fill="#010f1b" stroke="#010f1b"></path><path d="M1924 1277L2079 1461L2107 1230Z" fill="#030613" stroke="#030613"></path><path d="M1569 1263L1758 1470L1762 1214Z" fill="#020d1a" stroke="#020d1a"></path><path d="M1524 752L1385 865L1531 858Z" fill="#030613" stroke="#030613"></path><path d="M1531 858L1385 865L1580 1091Z" fill="#030916" stroke="#030916"></path><path d="M1385 865L1367 1125L1580 1091Z" fill="#030613" stroke="#030613"></path><path d="M1569 1263L1555 1444L1758 1470Z" fill="#030b17" stroke="#030b17"></path><path d="M2345 1257L2306 1056L2142 1107Z" fill="#030412" stroke="#030412"></path><path d="M2142 1107L2306 1056L2145 888Z" fill="#030613" stroke="#030613"></path><path d="M2145 888L2310 703L2074 732Z" fill="#00101c" stroke="#00101c"></path><path d="M2345 1257L2142 1107L2107 1230Z" fill="#030715" stroke="#030715"></path><path d="M2124 532L1962 545L2074 732Z" fill="#020c19" stroke="#020c19"></path><path d="M2074 732L1962 545L1891 759Z" fill="#020c19" stroke="#020c19"></path><path d="M1748 729L1526 520L1524 752Z" fill="#030310" stroke="#030310"></path><path d="M2306 1056L2317 936L2145 888Z" fill="#030715" stroke="#030715"></path><path d="M1962 545L1761 526L1891 759Z" fill="#03010e" stroke="#03010e"></path><path d="M1524 752L1311 728L1385 865Z" fill="#030412" stroke="#030412"></path><path d="M1366 1277L1555 1444L1569 1263Z" fill="#020d1a" stroke="#020d1a"></path><path d="M1951 1582L2079 1461L1925 1435Z" fill="#020c19" stroke="#020c19"></path><path d="M1925 1435L2079 1461L1924 1277Z" fill="#030412" stroke="#030412"></path><path d="M1367 1125L1366 1277L1569 1263Z" fill="#00101c" stroke="#00101c"></path><path d="M2272 1415L2345 1257L2107 1230Z" fill="#03010e" stroke="#03010e"></path><path d="M2306 1056L2449 903L2317 936Z" fill="#020d1a" stroke="#020d1a"></path><path d="M2310 703L2124 532L2074 732Z" fill="#00101c" stroke="#00101c"></path><path d="M1962 545L1884 324L1761 526Z" fill="#030412" stroke="#030412"></path><path d="M2449 903L2310 703L2317 936Z" fill="#030b17" stroke="#030b17"></path><path d="M2317 936L2310 703L2145 888Z" fill="#030916" stroke="#030916"></path><path d="M1713 1658L1951 1582L1758 1470Z" fill="#010f1b" stroke="#010f1b"></path><path d="M1758 1470L1951 1582L1925 1435Z" fill="#020d1a" stroke="#020d1a"></path><path d="M2079 1461L2272 1415L2107 1230Z" fill="#00101c" stroke="#00101c"></path><path d="M1691 332L1526 520L1761 526Z" fill="#030310" stroke="#030310"></path><path d="M1761 526L1526 520L1748 729Z" fill="#030310" stroke="#030310"></path><path d="M2146 1635L2272 1415L2079 1461Z" fill="#010f1b" stroke="#010f1b"></path><path d="M1526 520L1311 728L1524 752Z" fill="#030412" stroke="#030412"></path><path d="M1385 865L1131 1068L1367 1125Z" fill="#030715" stroke="#030715"></path><path d="M1367 1125L1177 1306L1366 1277Z" fill="#030715" stroke="#030715"></path><path d="M1366 1277L1389 1449L1555 1444Z" fill="#030916" stroke="#030916"></path><path d="M1555 1444L1713 1658L1758 1470Z" fill="#020c19" stroke="#020c19"></path><path d="M2522 1052L2449 903L2306 1056Z" fill="#030310" stroke="#030310"></path><path d="M1523 1608L1713 1658L1555 1444Z" fill="#020c19" stroke="#020c19"></path><path d="M2489 548L2259 516L2310 703Z" fill="#03010e" stroke="#03010e"></path><path d="M2310 703L2259 516L2124 532Z" fill="#010f1b" stroke="#010f1b"></path><path d="M2118 372L1884 324L1962 545Z" fill="#030412" stroke="#030412"></path><path d="M1389 1449L1523 1608L1555 1444Z" fill="#03010e" stroke="#03010e"></path><path d="M2144 1788L2146 1635L1951 1582Z" fill="#03010e" stroke="#03010e"></path><path d="M1951 1582L2146 1635L2079 1461Z" fill="#020d1a" stroke="#020d1a"></path><path d="M2482 1255L2306 1056L2345 1257Z" fill="#030613" stroke="#030613"></path><path d="M2482 1255L2522 1052L2306 1056Z" fill="#030412" stroke="#030412"></path><path d="M2482 1255L2345 1257L2536 1453Z" fill="#00101c" stroke="#00101c"></path><path d="M2536 1453L2345 1257L2272 1415Z" fill="#030310" stroke="#030310"></path><path d="M2118 372L1962 545L2124 532Z" fill="#030310" stroke="#030310"></path><path d="M1548 341L1369 494L1526 520Z" fill="#03010e" stroke="#03010e"></path><path d="M1526 520L1369 494L1311 728Z" fill="#030310" stroke="#030310"></path><path d="M1884 324L1691 332L1761 526Z" fill="#00101c" stroke="#00101c"></path><path d="M1140 882L1385 865L1311 728Z" fill="#030310" stroke="#030310"></path><path d="M1140 882L1131 1068L1385 865Z" fill="#020d1a" stroke="#020d1a"></path><path d="M1366 1277L1177 1306L1389 1449Z" fill="#030613" stroke="#030613"></path><path d="M1108 743L1140 882L1311 728Z" fill="#030613" stroke="#030613"></path><path d="M2259 516L2118 372L2124 532Z" fill="#010f1b" stroke="#010f1b"></path><path d="M2664 710L2470 714L2449 903Z" fill="#020c19" stroke="#020c19"></path><path d="M2449 903L2470 714L2310 703Z" fill="#030613" stroke="#030613"></path><path d="M2259 516L2275 355L2118 372Z" fill="#020d1a" stroke="#020d1a"></path><path d="M1131 1068L1177 1306L1367 1125Z" fill="#030b17" stroke="#030b17"></path><path d="M1389 1449L1363 1605L1523 1608Z" fill="#020c19" stroke="#020c19"></path><path d="M1691 332L1548 341L1526 520Z" fill="#030916" stroke="#030916"></path><path d="M1146 1471L1363 1605L1389 1449Z" fill="#030613" stroke="#030613"></path><path d="M1719 1807L1894 1783L1713 1658Z" fill="#030613" stroke="#030613"></path><path d="M1719 1807L1713 1658L1530 1788Z" fill="#030613" stroke="#030613"></path><path d="M1713 1658L1894 1783L1951 1582Z" fill="#030916" stroke="#030916"></path><path d="M1117 580L1108 743L1311 728Z" fill="#030b17" stroke="#030b17"></path><path d="M1140 882L929 870L1131 1068Z" fill="#010f1b" stroke="#010f1b"></path><path d="M1530 1788L1713 1658L1523 1608Z" fill="#030613" stroke="#030613"></path><path d="M2489 548L2275 355L2259 516Z" fill="#030b17" stroke="#030b17"></path><path d="M2112 190L1877 151L1884 324Z" fill="#03010e" stroke="#03010e"></path><path d="M2144 1788L2305 1664L2146 1635Z" fill="#03010e" stroke="#03010e"></path><path d="M2146 1635L2305 1664L2272 1415Z" fill="#00101c" stroke="#00101c"></path><path d="M2664 710L2489 548L2470 714Z" fill="#030412" stroke="#030412"></path><path d="M2470 714L2489 548L2310 703Z" fill="#030916" stroke="#030916"></path><path d="M977 1477L1146 1471L1177 1306Z" fill="#030715" stroke="#030715"></path><path d="M1177 1306L1146 1471L1389 1449Z" fill="#020c19" stroke="#020c19"></path><path d="M929 1233L1177 1306L1131 1068Z" fill="#030310" stroke="#030310"></path><path d="M1363 1605L1530 1788L1523 1608Z" fill="#020c19" stroke="#020c19"></path><path d="M1339 1817L1530 1788L1363 1605Z" fill="#00101c" stroke="#00101c"></path><path d="M2657 1267L2657 1056L2522 1052Z" fill="#030412" stroke="#030412"></path><path d="M2522 1052L2695 932L2449 903Z" fill="#030b17" stroke="#030b17"></path><path d="M2657 1267L2522 1052L2482 1255Z" fill="#020d1a" stroke="#020d1a"></path><path d="M2522 1580L2536 1453L2272 1415Z" fill="#030613" stroke="#030613"></path><path d="M2103 2015L2144 1788L1894 1783Z" fill="#030310" stroke="#030310"></path><path d="M1894 1783L2144 1788L1951 1582Z" fill="#030613" stroke="#030613"></path><path d="M1369 494L1117 580L1311 728Z" fill="#00101c" stroke="#00101c"></path><path d="M1108 338L1117 580L1369 494Z" fill="#03010e" stroke="#03010e"></path><path d="M1489 222L1329 340L1548 341Z" fill="#030b17" stroke="#030b17"></path><path d="M1548 341L1329 340L1369 494Z" fill="#030412" stroke="#030412"></path><path d="M1489 222L1548 341L1691 332Z" fill="#03010e" stroke="#03010e"></path><path d="M2536 1453L2657 1267L2482 1255Z" fill="#030715" stroke="#030715"></path><path d="M1754 139L1489 222L1691 332Z" fill="#030310" stroke="#030310"></path><path d="M1754 139L1691 332L1884 324Z" fill="#030412" stroke="#030412"></path><path d="M2874 1035L2695 932L2657 1056Z" fill="#030916" stroke="#030916"></path><path d="M2657 1056L2695 932L2522 1052Z" fill="#030715" stroke="#030715"></path><path d="M2112 190L1884 324L2118 372Z" fill="#010f1b" stroke="#010f1b"></path><path d="M2322 169L2112 190L2275 355Z" fill="#030715" stroke="#030715"></path><path d="M2275 355L2112 190L2118 372Z" fill="#010f1b" stroke="#010f1b"></path><path d="M1877 151L1754 139L1884 324Z" fill="#030412" stroke="#030412"></path><path d="M2695 932L2664 710L2449 903Z" fill="#030b17" stroke="#030b17"></path><path d="M2489 548L2521 371L2275 355Z" fill="#030b17" stroke="#030b17"></path><path d="M2305 1664L2522 1580L2272 1415Z" fill="#030715" stroke="#030715"></path><path d="M2536 1453L2659 1438L2657 1267Z" fill="#030715" stroke="#030715"></path><path d="M2463 1841L2522 1580L2305 1664Z" fill="#030412" stroke="#030412"></path><path d="M1146 1471L1198 1660L1363 1605Z" fill="#030916" stroke="#030916"></path><path d="M932 509L987 697L1117 580Z" fill="#030715" stroke="#030715"></path><path d="M1117 580L987 697L1108 743Z" fill="#020c19" stroke="#020c19"></path><path d="M1108 743L929 870L1140 882Z" fill="#03010e" stroke="#03010e"></path><path d="M2274 2001L2287 1804L2144 1788Z" fill="#030715" stroke="#030715"></path><path d="M2144 1788L2287 1804L2305 1664Z" fill="#020d1a" stroke="#020d1a"></path><path d="M987 697L929 870L1108 743Z" fill="#00101c" stroke="#00101c"></path><path d="M1146 1471L977 1477L1198 1660Z" fill="#030916" stroke="#030916"></path><path d="M929 870L915 1065L1131 1068Z" fill="#010f1b" stroke="#010f1b"></path><path d="M915 1065L929 1233L1131 1068Z" fill="#030412" stroke="#030412"></path><path d="M2522 1580L2659 1438L2536 1453Z" fill="#030b17" stroke="#030b17"></path><path d="M2657 1267L2874 1035L2657 1056Z" fill="#030613" stroke="#030613"></path><path d="M1497 1957L1763 1951L1719 1807Z" fill="#030412" stroke="#030412"></path><path d="M1719 1807L1763 1951L1894 1783Z" fill="#03010e" stroke="#03010e"></path><path d="M1497 1957L1719 1807L1530 1788Z" fill="#030412" stroke="#030412"></path><path d="M1198 1660L1339 1817L1363 1605Z" fill="#030310" stroke="#030310"></path><path d="M2699 540L2521 371L2489 548Z" fill="#030715" stroke="#030715"></path><path d="M929 1233L977 1477L1177 1306Z" fill="#020c19" stroke="#020c19"></path><path d="M1198 1660L1112 1778L1339 1817Z" fill="#030b17" stroke="#030b17"></path><path d="M2521 371L2322 169L2275 355Z" fill="#020d1a" stroke="#020d1a"></path><path d="M2112 190L1877 0L1877 151Z" fill="#030412" stroke="#030412"></path><path d="M1877 151L1877 0L1754 139Z" fill="#030412" stroke="#030412"></path><path d="M1489 222L1306 181L1329 340Z" fill="#030412" stroke="#030412"></path><path d="M1329 340L1108 338L1369 494Z" fill="#03010e" stroke="#03010e"></path><path d="M1385 0L1306 181L1489 222Z" fill="#020c19" stroke="#020c19"></path><path d="M2664 710L2699 540L2489 548Z" fill="#030916" stroke="#030916"></path><path d="M2521 371L2505 186L2322 169Z" fill="#030715" stroke="#030715"></path><path d="M2841 556L2699 540L2664 710Z" fill="#020d1a" stroke="#020d1a"></path><path d="M1160 172L1108 338L1329 340Z" fill="#030412" stroke="#030412"></path><path d="M1339 1817L1497 1957L1530 1788Z" fill="#030b17" stroke="#030b17"></path><path d="M1889 2160L1920 2019L1760 2160Z" fill="#010f1b" stroke="#010f1b"></path><path d="M1763 1951L1920 2019L1894 1783Z" fill="#010f1b" stroke="#010f1b"></path><path d="M2149 0L1877 0L2112 190Z" fill="#030412" stroke="#030412"></path><path d="M1754 139L1538 0L1489 222Z" fill="#030613" stroke="#030613"></path><path d="M1877 0L1696 0L1754 139Z" fill="#030412" stroke="#030412"></path><path d="M1920 2019L2103 2015L1894 1783Z" fill="#030715" stroke="#030715"></path><path d="M2287 1804L2463 1841L2305 1664Z" fill="#030310" stroke="#030310"></path><path d="M2522 1580L2720 1651L2659 1438Z" fill="#030916" stroke="#030916"></path><path d="M996 359L932 509L1117 580Z" fill="#010f1b" stroke="#010f1b"></path><path d="M722 739L732 886L929 870Z" fill="#030310" stroke="#030310"></path><path d="M727 1068L789 1279L915 1065Z" fill="#030412" stroke="#030412"></path><path d="M2274 2001L2463 1841L2287 1804Z" fill="#020c19" stroke="#020c19"></path><path d="M2924 1243L2874 1035L2657 1267Z" fill="#00101c" stroke="#00101c"></path><path d="M2695 932L2865 750L2664 710Z" fill="#010f1b" stroke="#010f1b"></path><path d="M2844 1477L2657 1267L2659 1438Z" fill="#020d1a" stroke="#020d1a"></path><path d="M915 1662L1112 1778L1198 1660Z" fill="#030412" stroke="#030412"></path><path d="M1339 1817L1379 2019L1497 1957Z" fill="#010f1b" stroke="#010f1b"></path><path d="M1696 0L1538 0L1754 139Z" fill="#03010e" stroke="#03010e"></path><path d="M2874 1035L2886 902L2695 932Z" fill="#010f1b" stroke="#010f1b"></path><path d="M1108 338L996 359L1117 580Z" fill="#030412" stroke="#030412"></path><path d="M982 198L996 359L1108 338Z" fill="#010f1b" stroke="#010f1b"></path><path d="M1160 172L1329 340L1306 181Z" fill="#03010e" stroke="#03010e"></path><path d="M2322 169L2149 0L2112 190Z" fill="#030916" stroke="#030916"></path><path d="M2886 902L2865 750L2695 932Z" fill="#010f1b" stroke="#010f1b"></path><path d="M2680 346L2521 371L2699 540Z" fill="#030715" stroke="#030715"></path><path d="M2680 346L2505 186L2521 371Z" fill="#030916" stroke="#030916"></path><path d="M2322 169L2292 0L2149 0Z" fill="#00101c" stroke="#00101c"></path><path d="M915 1065L789 1279L929 1233Z" fill="#030613" stroke="#030613"></path><path d="M929 1233L804 1415L977 1477Z" fill="#020c19" stroke="#020c19"></path><path d="M977 1477L915 1662L1198 1660Z" fill="#00101c" stroke="#00101c"></path><path d="M727 1068L915 1065L732 886Z" fill="#030916" stroke="#030916"></path><path d="M2103 2015L2274 2001L2144 1788Z" fill="#030b17" stroke="#030b17"></path><path d="M1117 0L1160 172L1306 181Z" fill="#030715" stroke="#030715"></path><path d="M2841 556L2680 346L2699 540Z" fill="#00101c" stroke="#00101c"></path><path d="M2708 1799L2522 1580L2463 1841Z" fill="#030715" stroke="#030715"></path><path d="M2708 1799L2720 1651L2522 1580Z" fill="#030412" stroke="#030412"></path><path d="M1118 1971L1379 2019L1339 1817Z" fill="#020c19" stroke="#020c19"></path><path d="M1760 2160L1920 2019L1763 1951Z" fill="#030412" stroke="#030412"></path><path d="M789 1279L804 1415L929 1233Z" fill="#030b17" stroke="#030b17"></path><path d="M732 886L915 1065L929 870Z" fill="#030715" stroke="#030715"></path><path d="M583 1478L762 1617L804 1415Z" fill="#030916" stroke="#030916"></path><path d="M722 739L987 697L774 555Z" fill="#03010e" stroke="#03010e"></path><path d="M722 739L929 870L987 697Z" fill="#010f1b" stroke="#010f1b"></path><path d="M3044 683L2841 556L2865 750Z" fill="#03010e" stroke="#03010e"></path><path d="M2865 750L2841 556L2664 710Z" fill="#030b17" stroke="#030b17"></path><path d="M2720 1651L2844 1477L2659 1438Z" fill="#00101c" stroke="#00101c"></path><path d="M2874 1035L3053 1070L2886 902Z" fill="#020c19" stroke="#020c19"></path><path d="M1538 0L1385 0L1489 222Z" fill="#030310" stroke="#030310"></path><path d="M2844 1477L2924 1243L2657 1267Z" fill="#03010e" stroke="#03010e"></path><path d="M2482 0L2292 0L2322 169Z" fill="#030310" stroke="#030310"></path><path d="M762 1617L915 1662L977 1477Z" fill="#020c19" stroke="#020c19"></path><path d="M1112 1778L1118 1971L1339 1817Z" fill="#030b17" stroke="#030b17"></path><path d="M915 1662L988 1788L1112 1778Z" fill="#030412" stroke="#030412"></path><path d="M1760 2160L1763 1951L1524 2160Z" fill="#030412" stroke="#030412"></path><path d="M1920 2019L2098 2160L2103 2015Z" fill="#03010e" stroke="#03010e"></path><path d="M2103 2015L2098 2160L2274 2001Z" fill="#030715" stroke="#030715"></path><path d="M1524 2160L1763 1951L1497 1957Z" fill="#030412" stroke="#030412"></path><path d="M774 555L987 697L932 509Z" fill="#030412" stroke="#030412"></path><path d="M533 1045L608 1220L727 1068Z" fill="#010f1b" stroke="#010f1b"></path><path d="M751 372L932 509L996 359Z" fill="#030715" stroke="#030715"></path><path d="M751 372L774 555L932 509Z" fill="#020c19" stroke="#020c19"></path><path d="M1889 2160L2098 2160L1920 2019Z" fill="#030613" stroke="#030613"></path><path d="M2688 1970L2708 1799L2463 1841Z" fill="#030310" stroke="#030310"></path><path d="M2541 2015L2463 1841L2274 2001Z" fill="#030916" stroke="#030916"></path><path d="M2720 1651L2916 1640L2844 1477Z" fill="#030b17" stroke="#030b17"></path><path d="M1117 0L982 198L1160 172Z" fill="#030b17" stroke="#030b17"></path><path d="M1160 172L982 198L1108 338Z" fill="#020c19" stroke="#020c19"></path><path d="M1328 2160L1524 2160L1379 2019Z" fill="#030b17" stroke="#030b17"></path><path d="M1379 2019L1524 2160L1497 1957Z" fill="#030b17" stroke="#030b17"></path><path d="M988 1788L1118 1971L1112 1778Z" fill="#010f1b" stroke="#010f1b"></path><path d="M2680 346L2657 162L2505 186Z" fill="#020d1a" stroke="#020d1a"></path><path d="M2505 186L2482 0L2322 169Z" fill="#03010e" stroke="#03010e"></path><path d="M2859 321L2657 162L2680 346Z" fill="#010f1b" stroke="#010f1b"></path><path d="M2657 162L2482 0L2505 186Z" fill="#030412" stroke="#030412"></path><path d="M3093 1443L3026 1269L2844 1477Z" fill="#030310" stroke="#030310"></path><path d="M2844 1477L3026 1269L2924 1243Z" fill="#010f1b" stroke="#010f1b"></path><path d="M2924 1243L3053 1070L2874 1035Z" fill="#030715" stroke="#030715"></path><path d="M2886 902L3044 683L2865 750Z" fill="#03010e" stroke="#03010e"></path><path d="M2318 2160L2541 2015L2274 2001Z" fill="#020d1a" stroke="#020d1a"></path><path d="M3026 1269L3053 1070L2924 1243Z" fill="#010f1b" stroke="#010f1b"></path><path d="M804 1415L762 1617L977 1477Z" fill="#020c19" stroke="#020c19"></path><path d="M786 1813L917 1936L988 1788Z" fill="#030412" stroke="#030412"></path><path d="M988 1788L917 1936L1118 1971Z" fill="#030310" stroke="#030310"></path><path d="M583 1478L804 1415L789 1279Z" fill="#020c19" stroke="#020c19"></path><path d="M533 1045L727 1068L732 886Z" fill="#020c19" stroke="#020c19"></path><path d="M727 1068L608 1220L789 1279Z" fill="#030412" stroke="#030412"></path><path d="M2098 2160L2318 2160L2274 2001Z" fill="#00101c" stroke="#00101c"></path><path d="M2841 556L2859 321L2680 346Z" fill="#030613" stroke="#030613"></path><path d="M2657 162L2721 0L2482 0Z" fill="#030412" stroke="#030412"></path><path d="M3069 405L2859 321L2841 556Z" fill="#00101c" stroke="#00101c"></path><path d="M1385 0L1117 0L1306 181Z" fill="#00101c" stroke="#00101c"></path><path d="M1118 1971L1328 2160L1379 2019Z" fill="#030715" stroke="#030715"></path><path d="M2855 1845L2720 1651L2708 1799Z" fill="#010f1b" stroke="#010f1b"></path><path d="M2855 1845L2916 1640L2720 1651Z" fill="#030412" stroke="#030412"></path><path d="M3100 896L3044 683L2886 902Z" fill="#020d1a" stroke="#020d1a"></path><path d="M982 198L751 372L996 359Z" fill="#030b17" stroke="#030b17"></path><path d="M587 750L574 859L722 739Z" fill="#020d1a" stroke="#020d1a"></path><path d="M722 739L574 859L732 886Z" fill="#020d1a" stroke="#020d1a"></path><path d="M750 193L751 372L982 198Z" fill="#030412" stroke="#030412"></path><path d="M587 750L722 739L593 521Z" fill="#020d1a" stroke="#020d1a"></path><path d="M593 521L722 739L774 555Z" fill="#030412" stroke="#030412"></path><path d="M3230 899L3100 896L3053 1070Z" fill="#030310" stroke="#030310"></path><path d="M3053 1070L3100 896L2886 902Z" fill="#030b17" stroke="#030b17"></path><path d="M2732 2160L2688 1970L2541 2015Z" fill="#03010e" stroke="#03010e"></path><path d="M2541 2015L2688 1970L2463 1841Z" fill="#030715" stroke="#030715"></path><path d="M3241 578L3047 586L3044 683Z" fill="#030b17" stroke="#030b17"></path><path d="M3044 683L3047 586L2841 556Z" fill="#030613" stroke="#030613"></path><path d="M786 1813L988 1788L915 1662Z" fill="#030613" stroke="#030613"></path><path d="M1118 1971L1129 2160L1328 2160Z" fill="#03010e" stroke="#03010e"></path><path d="M574 859L533 1045L732 886Z" fill="#00101c" stroke="#00101c"></path><path d="M576 1841L786 1813L762 1617Z" fill="#020d1a" stroke="#020d1a"></path><path d="M420 1084L533 1045L406 886Z" fill="#030613" stroke="#030613"></path><path d="M583 1478L789 1279L608 1220Z" fill="#020d1a" stroke="#020d1a"></path><path d="M762 1617L786 1813L915 1662Z" fill="#00101c" stroke="#00101c"></path><path d="M2688 1970L2855 1845L2708 1799Z" fill="#020c19" stroke="#020c19"></path><path d="M2318 2160L2511 2160L2541 2015Z" fill="#020d1a" stroke="#020d1a"></path><path d="M2688 1970L2920 1984L2855 1845Z" fill="#030b17" stroke="#030b17"></path><path d="M426 1223L583 1478L608 1220Z" fill="#010f1b" stroke="#010f1b"></path><path d="M2916 1640L3093 1443L2844 1477Z" fill="#020c19" stroke="#020c19"></path><path d="M3245 1121L3230 899L3053 1070Z" fill="#030412" stroke="#030412"></path><path d="M3098 1626L3093 1443L2916 1640Z" fill="#020c19" stroke="#020c19"></path><path d="M598 347L593 521L751 372Z" fill="#00101c" stroke="#00101c"></path><path d="M751 372L593 521L774 555Z" fill="#020d1a" stroke="#020d1a"></path><path d="M406 886L533 1045L574 859Z" fill="#030412" stroke="#030412"></path><path d="M3079 160L2834 135L2859 321Z" fill="#030715" stroke="#030715"></path><path d="M2859 321L2834 135L2657 162Z" fill="#030916" stroke="#030916"></path><path d="M917 2160L1118 1971L917 1936Z" fill="#030613" stroke="#030613"></path><path d="M917 2160L1129 2160L1118 1971Z" fill="#030715" stroke="#030715"></path><path d="M1117 0L946 0L982 198Z" fill="#010f1b" stroke="#010f1b"></path><path d="M2834 135L2721 0L2657 162Z" fill="#030613" stroke="#030613"></path><path d="M811 0L750 193L982 198Z" fill="#020d1a" stroke="#020d1a"></path><path d="M583 1478L591 1600L762 1617Z" fill="#020c19" stroke="#020c19"></path><path d="M421 1652L591 1600L583 1478Z" fill="#03010e" stroke="#03010e"></path><path d="M3241 578L3069 405L3047 586Z" fill="#03010e" stroke="#03010e"></path><path d="M3047 586L3069 405L2841 556Z" fill="#030412" stroke="#030412"></path><path d="M2834 135L2877 0L2721 0Z" fill="#010f1b" stroke="#010f1b"></path><path d="M750 193L598 347L751 372Z" fill="#010f1b" stroke="#010f1b"></path><path d="M406 886L574 859L587 750Z" fill="#020d1a" stroke="#020d1a"></path><path d="M3245 1121L3053 1070L3026 1269Z" fill="#010f1b" stroke="#010f1b"></path><path d="M3100 896L3262 682L3044 683Z" fill="#00101c" stroke="#00101c"></path><path d="M3117 1755L3098 1626L2916 1640Z" fill="#030715" stroke="#030715"></path><path d="M3093 1443L3225 1274L3026 1269Z" fill="#030b17" stroke="#030b17"></path><path d="M3117 1755L2916 1640L2855 1845Z" fill="#030310" stroke="#030310"></path><path d="M406 886L587 750L350 750Z" fill="#020d1a" stroke="#020d1a"></path><path d="M533 1045L426 1223L608 1220Z" fill="#030b17" stroke="#030b17"></path><path d="M3260 1465L3225 1274L3093 1443Z" fill="#030310" stroke="#030310"></path><path d="M3225 1274L3245 1121L3026 1269Z" fill="#030310" stroke="#030310"></path><path d="M420 1084L426 1223L533 1045Z" fill="#020d1a" stroke="#020d1a"></path><path d="M350 750L587 750L363 542Z" fill="#030412" stroke="#030412"></path><path d="M222 1251L390 1441L426 1223Z" fill="#030412" stroke="#030412"></path><path d="M786 1813L787 1999L917 1936Z" fill="#020c19" stroke="#020c19"></path><path d="M576 1841L787 1999L786 1813Z" fill="#03010e" stroke="#03010e"></path><path d="M946 0L811 0L982 198Z" fill="#030916" stroke="#030916"></path><path d="M750 193L608 206L598 347Z" fill="#03010e" stroke="#03010e"></path><path d="M2511 2160L2732 2160L2541 2015Z" fill="#030412" stroke="#030412"></path><path d="M2732 2160L2920 1984L2688 1970Z" fill="#030412" stroke="#030412"></path><path d="M3034 0L2877 0L2834 135Z" fill="#030412" stroke="#030412"></path><path d="M787 1999L917 2160L917 1936Z" fill="#030916" stroke="#030916"></path><path d="M578 0L608 206L750 193Z" fill="#030412" stroke="#030412"></path><path d="M363 542L587 750L593 521Z" fill="#010f1b" stroke="#010f1b"></path><path d="M3230 899L3262 682L3100 896Z" fill="#030715" stroke="#030715"></path><path d="M3069 405L3079 160L2859 321Z" fill="#030715" stroke="#030715"></path><path d="M3423 754L3262 682L3230 899Z" fill="#030916" stroke="#030916"></path><path d="M3262 682L3241 578L3044 683Z" fill="#030916" stroke="#030916"></path><path d="M3107 1947L3117 1755L2855 1845Z" fill="#010f1b" stroke="#010f1b"></path><path d="M3098 1626L3260 1465L3093 1443Z" fill="#030310" stroke="#030310"></path><path d="M3221 1653L3260 1465L3098 1626Z" fill="#030715" stroke="#030715"></path><path d="M3418 1126L3417 905L3245 1121Z" fill="#020c19" stroke="#020c19"></path><path d="M3245 1121L3417 905L3230 899Z" fill="#030412" stroke="#030412"></path><path d="M421 1652L576 1841L591 1600Z" fill="#010f1b" stroke="#010f1b"></path><path d="M591 1600L576 1841L762 1617Z" fill="#030613" stroke="#030613"></path><path d="M787 1999L809 2160L917 2160Z" fill="#030715" stroke="#030715"></path><path d="M222 1251L426 1223L420 1084Z" fill="#030412" stroke="#030412"></path><path d="M426 1223L390 1441L583 1478Z" fill="#030715" stroke="#030715"></path><path d="M363 542L593 521L397 397Z" fill="#03010e" stroke="#03010e"></path><path d="M167 1126L222 1251L420 1084Z" fill="#030916" stroke="#030916"></path><path d="M3243 345L3079 160L3069 405Z" fill="#030613" stroke="#030613"></path><path d="M3117 1755L3221 1653L3098 1626Z" fill="#020d1a" stroke="#020d1a"></path><path d="M3242 1839L3221 1653L3117 1755Z" fill="#00101c" stroke="#00101c"></path><path d="M602 2160L809 2160L787 1999Z" fill="#030412" stroke="#030412"></path><path d="M397 397L593 521L598 347Z" fill="#010f1b" stroke="#010f1b"></path><path d="M390 1441L421 1652L583 1478Z" fill="#030b17" stroke="#030b17"></path><path d="M576 1841L540 1995L787 1999Z" fill="#00101c" stroke="#00101c"></path><path d="M2732 2160L2881 2160L2920 1984Z" fill="#010f1b" stroke="#010f1b"></path><path d="M2920 1984L3107 1947L2855 1845Z" fill="#020d1a" stroke="#020d1a"></path><path d="M376 160L598 347L608 206Z" fill="#020d1a" stroke="#020d1a"></path><path d="M376 160L397 397L598 347Z" fill="#030310" stroke="#030310"></path><path d="M3443 541L3243 345L3241 578Z" fill="#020d1a" stroke="#020d1a"></path><path d="M3241 578L3243 345L3069 405Z" fill="#020c19" stroke="#020c19"></path><path d="M3279 0L3034 0L3079 160Z" fill="#030310" stroke="#030310"></path><path d="M3079 160L3034 0L2834 135Z" fill="#00101c" stroke="#00101c"></path><path d="M3107 2160L3107 1947L2920 1984Z" fill="#020d1a" stroke="#020d1a"></path><path d="M3245 1121L3225 1274L3410 1279Z" fill="#030310" stroke="#030310"></path><path d="M3418 1126L3245 1121L3410 1279Z" fill="#030412" stroke="#030412"></path><path d="M3262 682L3443 541L3241 578Z" fill="#030412" stroke="#030412"></path><path d="M3410 1279L3225 1274L3260 1465Z" fill="#03010e" stroke="#03010e"></path><path d="M3412 1457L3260 1465L3459 1614Z" fill="#020c19" stroke="#020c19"></path><path d="M3412 1457L3410 1279L3260 1465Z" fill="#030715" stroke="#030715"></path><path d="M3417 905L3423 754L3230 899Z" fill="#030715" stroke="#030715"></path><path d="M3443 541L3423 754L3678 697Z" fill="#030310" stroke="#030310"></path><path d="M811 0L578 0L750 193Z" fill="#010f1b" stroke="#010f1b"></path><path d="M371 1944L540 1995L576 1841Z" fill="#030613" stroke="#030613"></path><path d="M170 940L420 1084L406 886Z" fill="#030412" stroke="#030412"></path><path d="M390 1441L222 1648L421 1652Z" fill="#020c19" stroke="#020c19"></path><path d="M421 1652L371 1841L576 1841Z" fill="#030310" stroke="#030310"></path><path d="M170 940L406 886L350 750Z" fill="#020d1a" stroke="#020d1a"></path><path d="M3219 1996L3242 1839L3107 1947Z" fill="#020d1a" stroke="#020d1a"></path><path d="M3107 1947L3242 1839L3117 1755Z" fill="#030310" stroke="#030310"></path><path d="M3459 1614L3260 1465L3221 1653Z" fill="#030916" stroke="#030916"></path><path d="M3410 1279L3607 1229L3418 1126Z" fill="#010f1b" stroke="#010f1b"></path><path d="M3243 345L3246 165L3079 160Z" fill="#030b17" stroke="#030b17"></path><path d="M3446 373L3246 165L3243 345Z" fill="#030310" stroke="#030310"></path><path d="M211 532L350 750L363 542Z" fill="#020c19" stroke="#020c19"></path><path d="M161 738L170 940L350 750Z" fill="#020c19" stroke="#020c19"></path><path d="M170 940L167 1126L420 1084Z" fill="#03010e" stroke="#03010e"></path><path d="M222 1648L371 1841L421 1652Z" fill="#030310" stroke="#030310"></path><path d="M222 1648L390 1441L155 1468Z" fill="#030310" stroke="#030310"></path><path d="M540 1995L602 2160L787 1999Z" fill="#030412" stroke="#030412"></path><path d="M428 2160L602 2160L540 1995Z" fill="#010f1b" stroke="#010f1b"></path><path d="M3693 934L3423 754L3417 905Z" fill="#030916" stroke="#030916"></path><path d="M3423 754L3443 541L3262 682Z" fill="#030412" stroke="#030412"></path><path d="M3631 1046L3417 905L3418 1126Z" fill="#030b17" stroke="#030b17"></path><path d="M578 0L376 160L608 206Z" fill="#030715" stroke="#030715"></path><path d="M397 397L211 532L363 542Z" fill="#00101c" stroke="#00101c"></path><path d="M233 336L211 532L397 397Z" fill="#030b17" stroke="#030b17"></path><path d="M211 532L161 738L350 750Z" fill="#030715" stroke="#030715"></path><path d="M170 940L0 1083L167 1126Z" fill="#030412" stroke="#030412"></path><path d="M3107 2160L3219 1996L3107 1947Z" fill="#030412" stroke="#030412"></path><path d="M3448 1794L3459 1614L3221 1653Z" fill="#030613" stroke="#030613"></path><path d="M2881 2160L3107 2160L2920 1984Z" fill="#030715" stroke="#030715"></path><path d="M155 1468L390 1441L222 1251Z" fill="#030715" stroke="#030715"></path><path d="M371 1841L371 1944L576 1841Z" fill="#00101c" stroke="#00101c"></path><path d="M195 1795L371 1944L371 1841Z" fill="#030b17" stroke="#030b17"></path><path d="M3448 1794L3221 1653L3242 1839Z" fill="#030613" stroke="#030613"></path><path d="M3603 1432L3607 1229L3410 1279Z" fill="#030310" stroke="#030310"></path><path d="M0 1260L222 1251L167 1126Z" fill="#03010e" stroke="#03010e"></path><path d="M0 1260L155 1468L222 1251Z" fill="#03010e" stroke="#03010e"></path><path d="M376 160L233 336L397 397Z" fill="#030613" stroke="#030613"></path><path d="M0 894L170 940L161 738Z" fill="#020d1a" stroke="#020d1a"></path><path d="M3490 186L3446 373L3616 406Z" fill="#030916" stroke="#030916"></path><path d="M3443 541L3446 373L3243 345Z" fill="#030613" stroke="#030613"></path><path d="M3421 0L3279 0L3246 165Z" fill="#010f1b" stroke="#010f1b"></path><path d="M3246 165L3279 0L3079 160Z" fill="#020c19" stroke="#020c19"></path><path d="M578 0L382 0L376 160Z" fill="#030916" stroke="#030916"></path><path d="M376 160L158 200L233 336Z" fill="#030310" stroke="#030310"></path><path d="M3603 1432L3410 1279L3412 1457Z" fill="#00101c" stroke="#00101c"></path><path d="M3422 1995L3448 1794L3242 1839Z" fill="#03010e" stroke="#03010e"></path><path d="M3459 1614L3603 1432L3412 1457Z" fill="#030613" stroke="#030613"></path><path d="M3422 1995L3242 1839L3219 1996Z" fill="#03010e" stroke="#03010e"></path><path d="M3607 1229L3631 1046L3418 1126Z" fill="#030613" stroke="#030613"></path><path d="M174 2023L428 2160L371 1944Z" fill="#03010e" stroke="#03010e"></path><path d="M371 1944L428 2160L540 1995Z" fill="#030916" stroke="#030916"></path><path d="M0 1784L195 1795L222 1648Z" fill="#030715" stroke="#030715"></path><path d="M222 1648L195 1795L371 1841Z" fill="#030613" stroke="#030613"></path><path d="M3616 1611L3603 1432L3459 1614Z" fill="#030412" stroke="#030412"></path><path d="M3840 1054L3693 934L3631 1046Z" fill="#020d1a" stroke="#020d1a"></path><path d="M0 894L0 1083L170 940Z" fill="#030b17" stroke="#030b17"></path><path d="M155 1468L0 1582L222 1648Z" fill="#020d1a" stroke="#020d1a"></path><path d="M0 894L161 738L0 710Z" fill="#03010e" stroke="#03010e"></path><path d="M0 710L161 738L0 574Z" fill="#00101c" stroke="#00101c"></path><path d="M0 1083L0 1260L167 1126Z" fill="#03010e" stroke="#03010e"></path><path d="M3616 406L3446 373L3443 541Z" fill="#030412" stroke="#030412"></path><path d="M3446 373L3490 186L3246 165Z" fill="#030613" stroke="#030613"></path><path d="M0 574L161 738L211 532Z" fill="#030613" stroke="#030613"></path><path d="M0 574L211 532L0 359Z" fill="#030412" stroke="#030412"></path><path d="M150 0L158 200L376 160Z" fill="#030310" stroke="#030310"></path><path d="M3840 1054L3631 1046L3607 1229Z" fill="#010f1b" stroke="#010f1b"></path><path d="M3631 1046L3693 934L3417 905Z" fill="#030613" stroke="#030613"></path><path d="M3107 2160L3308 2160L3219 1996Z" fill="#030613" stroke="#030613"></path><path d="M3448 1794L3616 1611L3459 1614Z" fill="#00101c" stroke="#00101c"></path><path d="M3308 2160L3422 1995L3219 1996Z" fill="#030310" stroke="#030310"></path><path d="M0 1260L0 1416L155 1468Z" fill="#030412" stroke="#030412"></path><path d="M3693 934L3678 697L3423 754Z" fill="#030b17" stroke="#030b17"></path><path d="M3661 1762L3616 1611L3448 1794Z" fill="#030715" stroke="#030715"></path><path d="M3840 1260L3840 1054L3607 1229Z" fill="#030b17" stroke="#030b17"></path><path d="M0 359L211 532L233 336Z" fill="#00101c" stroke="#00101c"></path><path d="M3652 500L3616 406L3443 541Z" fill="#030b17" stroke="#030b17"></path><path d="M3490 186L3421 0L3246 165Z" fill="#020c19" stroke="#020c19"></path><path d="M3691 0L3421 0L3490 186Z" fill="#030916" stroke="#030916"></path><path d="M3678 697L3652 500L3443 541Z" fill="#030b17" stroke="#030b17"></path><path d="M0 1416L0 1582L155 1468Z" fill="#030613" stroke="#030613"></path><path d="M195 1795L174 2023L371 1944Z" fill="#020c19" stroke="#020c19"></path><path d="M0 1969L174 2023L195 1795Z" fill="#010f1b" stroke="#010f1b"></path><path d="M158 200L0 359L233 336Z" fill="#030b17" stroke="#030b17"></path><path d="M382 0L150 0L376 160Z" fill="#030412" stroke="#030412"></path><path d="M158 200L0 194L0 359Z" fill="#030412" stroke="#030412"></path><path d="M3670 1945L3661 1762L3448 1794Z" fill="#010f1b" stroke="#010f1b"></path><path d="M3840 1260L3607 1229L3603 1432Z" fill="#00101c" stroke="#00101c"></path><path d="M3670 1945L3448 1794L3422 1995Z" fill="#030715" stroke="#030715"></path><path d="M0 1582L0 1784L222 1648Z" fill="#030613" stroke="#030613"></path><path d="M3308 2160L3461 2160L3422 1995Z" fill="#030310" stroke="#030310"></path><path d="M0 2160L188 2160L174 2023Z" fill="#020c19" stroke="#020c19"></path><path d="M174 2023L188 2160L428 2160Z" fill="#030916" stroke="#030916"></path><path d="M150 0L0 194L158 200Z" fill="#030412" stroke="#030412"></path><path d="M3840 1260L3603 1432L3840 1441Z" fill="#00101c" stroke="#00101c"></path><path d="M3693 934L3840 884L3678 697Z" fill="#030b17" stroke="#030b17"></path><path d="M3678 697L3840 578L3652 500Z" fill="#030412" stroke="#030412"></path><path d="M3840 1054L3840 884L3693 934Z" fill="#03010e" stroke="#03010e"></path><path d="M3840 316L3687 188L3616 406Z" fill="#030b17" stroke="#030b17"></path><path d="M3840 1441L3603 1432L3616 1611Z" fill="#030715" stroke="#030715"></path><path d="M3840 316L3616 406L3652 500Z" fill="#020c19" stroke="#020c19"></path><path d="M3616 406L3687 188L3490 186Z" fill="#020c19" stroke="#020c19"></path><path d="M3840 884L3840 682L3678 697Z" fill="#020d1a" stroke="#020d1a"></path><path d="M3840 1624L3616 1611L3661 1762Z" fill="#03010e" stroke="#03010e"></path><path d="M3840 1624L3840 1441L3616 1611Z" fill="#030916" stroke="#030916"></path><path d="M3840 682L3840 578L3678 697Z" fill="#020d1a" stroke="#020d1a"></path><path d="M3621 2160L3670 1945L3422 1995Z" fill="#020c19" stroke="#020c19"></path><path d="M0 1784L0 1969L195 1795Z" fill="#03010e" stroke="#03010e"></path><path d="M150 0L0 0L0 194Z" fill="#010f1b" stroke="#010f1b"></path><path d="M3840 1833L3840 1624L3661 1762Z" fill="#010f1b" stroke="#010f1b"></path><path d="M3687 188L3691 0L3490 186Z" fill="#020d1a" stroke="#020d1a"></path><path d="M3840 0L3691 0L3687 188Z" fill="#030613" stroke="#030613"></path><path d="M3461 2160L3621 2160L3422 1995Z" fill="#030916" stroke="#030916"></path><path d="M3670 1945L3840 1833L3661 1762Z" fill="#020c19" stroke="#020c19"></path><path d="M3840 578L3840 316L3652 500Z" fill="#030916" stroke="#030916"></path><path d="M0 1969L0 2160L174 2023Z" fill="#020d1a" stroke="#020d1a"></path><path d="M3840 316L3840 226L3687 188Z" fill="#030b17" stroke="#030b17"></path><path d="M3840 1983L3840 1833L3670 1945Z" fill="#030613" stroke="#030613"></path><path d="M3840 2160L3840 1983L3670 1945Z" fill="#010f1b" stroke="#010f1b"></path><path d="M3840 226L3840 0L3687 188Z" fill="#010f1b" stroke="#010f1b"></path><path d="M3621 2160L3840 2160L3670 1945Z" fill="#030412" stroke="#030412"></path></g></svg>